<svg width="514" height="514" xmlns="http://www.w3.org/2000/svg" xmlns:xlink="http://www.w3.org/1999/xlink" overflow="hidden"><defs><clipPath id="clip0"><rect x="383" y="103" width="514" height="514"/></clipPath><clipPath id="clip1"><rect x="423" y="133" width="434" height="434"/></clipPath><clipPath id="clip2"><rect x="423" y="133" width="434" height="434"/></clipPath><clipPath id="clip3"><rect x="423" y="133" width="434" height="434"/></clipPath></defs><g clip-path="url(#clip0)" transform="translate(-383 -103)"><path d="M384 360C384 218.615 498.615 104 640 104 781.385 104 896 218.615 896 360 896 501.385 781.385 616 640 616 498.615 616 384 501.385 384 360Z" fill="#198754" fill-rule="evenodd"/><g clip-path="url(#clip1)"><g clip-path="url(#clip2)"><g clip-path="url(#clip3)"><path d="M510.693 536.435 540.716 509.011C544.614 505.45 549.691 503.455 554.972 503.41L657.579 502.537C667.792 502.449 677.633 498.687 685.299 491.936L761.562 424.771C768.931 418.282 769.619 407.04 763.099 399.7L763.099 399.7C756.886 392.704 746.305 391.745 738.934 397.507L679.096 444.285C674.456 447.912 668.724 449.856 662.835 449.801L596.587 449.183C589.397 449.116 583.468 443.527 582.98 436.352L582.98 436.352C582.437 428.384 588.765 421.627 596.752 421.649L654.427 421.801C662.158 421.821 668.61 415.909 669.264 408.207L669.264 408.207C669.982 399.77 663.511 392.441 655.051 392.108L563.005 388.48C559.548 388.345 556.107 388.521 552.723 388.999 537.84 391.099 525.213 401.009 519.216 414.792L519.216 414.792C512.39 430.482 502.106 444.425 489.131 455.58L471.16 471.028" fill="#F9DEC5"/><path d="M788.286 367.535C788.286 285.639 721.896 219.25 640 219.25 558.104 219.25 491.714 285.64 491.714 367.535" fill="#F2F2F2"/><path d="M666.712 221.656C658.047 220.079 649.121 219.251 640 219.251 558.104 219.251 491.714 285.64 491.714 367.536L545.138 367.536C545.138 294.761 597.567 234.234 666.712 221.656Z" fill="#E6E6E6"/><path d="M657.227 180.826C657.227 190.34 649.514 198.053 640 198.053 630.486 198.053 622.773 190.34 622.773 180.826 622.773 171.311 630.486 163.599 640 163.599 649.514 163.599 657.227 171.311 657.227 180.826Z" fill="#F2F2F2"/><path d="M734.546 391.876 674.707 438.654C671.351 441.276 667.161 442.705 662.9 442.66L596.653 442.042C593.204 442.01 590.319 439.29 590.084 435.849 589.958 433.988 590.589 432.214 591.865 430.854 593.136 429.497 594.857 428.751 596.714 428.751 596.72 428.751 596.727 428.751 596.732 428.751L654.408 428.904C654.426 428.904 654.446 428.904 654.465 428.904 665.789 428.904 675.401 420.08 676.362 408.791 676.876 402.754 674.95 396.928 670.939 392.385 666.929 387.843 661.385 385.211 655.332 384.973L563.285 381.345C559.43 381.192 555.543 381.389 551.728 381.927 534.65 384.335 519.689 395.833 512.685 411.931 506.325 426.548 496.576 439.768 484.488 450.158L466.519 465.608C463.536 468.172 463.197 472.669 465.762 475.652 467.17 477.291 469.163 478.131 471.166 478.131 472.809 478.131 474.462 477.565 475.806 476.409L493.774 460.96C507.481 449.177 518.536 434.188 525.747 417.613 530.79 406.022 541.507 397.753 553.718 396.03 556.691 395.612 559.72 395.457 562.723 395.576L654.77 399.204C656.9 399.288 658.849 400.213 660.26 401.811 661.67 403.408 662.348 405.458 662.167 407.582 661.83 411.553 658.448 414.658 654.465 414.658 654.458 414.658 654.452 414.658 654.445 414.658L596.77 414.505C596.752 414.505 596.733 414.505 596.715 414.505 590.958 414.505 585.404 416.912 581.468 421.115 577.519 425.33 575.48 431.055 575.872 436.817 576.609 447.633 585.679 456.184 596.519 456.285L662.767 456.903C670.231 456.964 677.594 454.478 683.481 449.875L743.32 403.097C747.717 399.658 754.067 400.235 757.774 404.409 759.66 406.532 760.604 409.263 760.429 412.098 760.254 414.932 758.985 417.527 756.854 419.404L713.747 457.368C710.795 459.969 710.51 464.469 713.109 467.421 715.709 470.372 720.21 470.659 723.162 468.058L766.269 430.094C771.265 425.696 774.24 419.613 774.648 412.969 775.055 406.324 772.846 399.924 768.423 394.946 759.734 385.168 744.853 383.818 734.546 391.876Z"/><path d="M694.571 474.258 680.59 486.57C674.211 492.188 666.017 495.321 657.518 495.394L554.911 496.268C547.863 496.328 541.116 498.978 535.912 503.732L505.889 531.155C502.984 533.807 502.781 538.314 505.434 541.218 506.838 542.756 508.763 543.537 510.695 543.537 512.41 543.537 514.131 542.922 515.496 541.674L545.519 514.25C548.125 511.87 551.503 510.543 555.033 510.512L657.639 509.638C669.563 509.537 681.057 505.141 690.006 497.26L703.987 484.948C706.939 482.349 707.224 477.847 704.625 474.895 702.025 471.945 697.524 471.659 694.571 474.258Z"/><path d="M849.877 360.393 795.238 360.393C791.502 277.995 723.305 212.108 640 212.108 588.294 212.108 540.122 237.72 511.137 280.621 508.935 283.881 509.792 288.308 513.052 290.511 516.311 292.712 520.739 291.857 522.941 288.596 549.272 249.621 593.031 226.352 640 226.352 715.448 226.352 777.262 285.852 780.985 360.393L499.013 360.393C499.837 343.654 503.573 327.422 510.152 312.044 511.699 308.428 510.022 304.241 506.404 302.694 502.788 301.147 498.602 302.824 497.055 306.441 489.715 323.598 485.594 341.717 484.759 360.394L430.123 360.394C426.19 360.394 423 363.583 423 367.517 423 371.45 426.189 374.64 430.123 374.64L849.878 374.64C853.811 374.64 857.001 371.451 857.001 367.517 857 363.583 853.811 360.393 849.877 360.393Z"/><path d="M640 205.152C653.423 205.152 664.345 194.231 664.345 180.808 664.345 167.384 653.423 156.463 640 156.463 626.577 156.463 615.656 167.384 615.656 180.808 615.656 194.231 626.577 205.152 640 205.152ZM640 170.709C645.569 170.709 650.1 175.24 650.1 180.809 650.1 186.378 645.569 190.908 640 190.908 634.431 190.908 629.901 186.378 629.901 180.809 629.901 175.24 634.431 170.709 640 170.709Z"/></g></g></g></g></svg>